<svg xmlns="http://www.w3.org/2000/svg" width="279.731" height="50.733" viewBox="0 0 279.731 50.733"><g transform="translate(-699 -677.57)"><g transform="translate(699.736 677.57)"><path d="M719.766,678.193v20.728h-1.629V681.036l-8.2,10.393-8.114-10.541v18.032h-1.628V678.193h1.569L710.054,689l8.291-10.808Z" transform="translate(-700.193 -677.809)" fill="#707070"/><path d="M754.37,693.739H743.089l-2.191,5.182h-1.777L748,678.193h1.421l8.883,20.728h-1.747Zm-.651-1.511-4.975-11.844-5,11.844Z" transform="translate(-715.109 -677.809)" fill="#707070"/><path d="M794.48,678.193v20.728h-1.511l-13.917-18v18h-1.628V678.193h1.511l13.917,18v-18Z" transform="translate(-729.786 -677.809)" fill="#707070"/><path d="M814,688.319a10.543,10.543,0,1,1,21.083,0c0,5.921-4.264,10.748-10.542,10.748C818.235,699.067,814,694.24,814,688.319Zm19.425,0c0-5.152-3.554-9.268-8.884-9.268-5.3,0-8.853,4.115-8.853,9.268s3.554,9.268,8.853,9.268C829.9,697.587,833.425,693.471,833.425,688.319Z" transform="translate(-743.801 -677.57)" fill="#707070"/><path d="M874.159,678.193v20.728h-1.51l-13.917-18v18H857.1V678.193h1.51l13.917,18v-18Z" transform="translate(-760.317 -677.809)" fill="#707070"/><path d="M926.064,693.325a5.524,5.524,0,0,1-5.922,5.6H909.808V678.193h9.712c4,0,5.952,2.636,5.952,5.419a4.343,4.343,0,0,1-3.554,4.59A4.856,4.856,0,0,1,926.064,693.325ZM911.436,679.7v7.905h8.113c3.021,0,4.234-1.806,4.234-3.967,0-2.191-1.213-3.938-4.234-3.938Zm12.94,13.59a3.9,3.9,0,0,0-4.2-4.175h-8.735v8.291h8.735A3.829,3.829,0,0,0,924.376,693.295Z" transform="translate(-780.512 -677.809)" fill="#707070"/><path d="M960.424,697.411v1.51H945.471V678.193h14.45V679.7H947.1v7.757h10.245v1.511H947.1v8.439Z" transform="translate(-794.177 -677.809)" fill="#707070"/><path d="M992.824,697.411v1.51H977.871V678.193h14.45V679.7H979.5v7.757h10.245v1.511H979.5v8.439Z" transform="translate(-806.592 -677.809)" fill="#707070"/><path d="M1016.933,687.787l-5.034,4.975v6.158h-1.628V678.193h1.628v12.585l12.466-12.585h2.221l-8.528,8.47,9.06,12.258h-2.073Z" transform="translate(-819.006 -677.809)" fill="#707070"/><path d="M1063.826,678.193v20.728H1062.2V681.036L1054,691.43l-8.113-10.541v18.032h-1.629V678.193h1.569L1054.114,689l8.292-10.808Z" transform="translate(-832.028 -677.809)" fill="#707070"/><path d="M1098.43,693.739h-11.282l-2.19,5.182h-1.777l8.883-20.728h1.422l8.883,20.728h-1.747Zm-.651-1.511-4.975-11.844-5,11.844Z" transform="translate(-846.943 -677.809)" fill="#707070"/><path d="M1138.54,678.193v20.728h-1.51l-13.917-18v18h-1.629V678.193h1.51l13.917,18v-18Z" transform="translate(-861.62 -677.809)" fill="#707070"/></g><g transform="translate(699 715.173)"><path d="M1080.174,738.731,1055,738.692v.38l25.174-.039,34.966-.151Z" transform="translate(-835.409 -738.593)" fill="#707070"/><path d="M826.066,738.532l-57.134.084-34.966.055-34.966.15,34.966.15,34.966.054,57.134.084Z" transform="translate(-699 -738.532)" fill="#707070"/></g><g transform="translate(827.104 703.199)"><path d="M908.56,742.76a.574.574,0,0,1-.13.168q-.065.051-.531.311a1.774,1.774,0,0,1-.842.26c-.251,0-.376-.062-.376-.182a.6.6,0,0,1,.052-.207q.466-.881,4.793-11.943a10.321,10.321,0,0,1-1.192.1.976.976,0,0,1-.609-.168.528.528,0,0,1-.22-.44q0-.272.583-.492a2.786,2.786,0,0,1,.894-.22.7.7,0,0,1,.518.207q.207.207.285.207h.078l.751-1.917q.467-1.3,1.425-3.381a30.681,30.681,0,0,1,1.736-3.33q1.736-2.615,3.472-2.616l.622.078.518.181a1.346,1.346,0,0,1,.751,1.2,3.879,3.879,0,0,1-.415,1.646,17.926,17.926,0,0,1-2.849,3.912,35.589,35.589,0,0,1-4.145,4.016q2.123-.181,2.733-.181c.405,0,.617.052.635.155q0,.1-.492.246t-3.99.66q-3.083,7.825-3.135,8.964a3,3,0,0,1-.117.816q-.091.246-.22.57t-.194.493c-.043.112-.091.236-.142.375a2.2,2.2,0,0,1-.13.3C908.642,742.613,908.6,742.682,908.56,742.76ZM920,721.866a2.833,2.833,0,0,0,.44-1.425q0-.673-.492-.673-.984,0-2.8,2.539a33.948,33.948,0,0,0-1.891,2.979,33.069,33.069,0,0,0-2.124,4.534l-.207.414a22.876,22.876,0,0,0,3.86-3.834A33.164,33.164,0,0,0,920,721.866Z" transform="translate(-906.682 -719.12)" fill="#707070"/><path d="M928.958,736.283a3.757,3.757,0,0,0,.466-1.476,2.3,2.3,0,0,0-.116-.816.425.425,0,0,1,.1-.505.629.629,0,0,1,.557-.155q.517.131.518,1.166a5.179,5.179,0,0,1-1.218,2.72.644.644,0,0,0,.726.7q.7,0,2.124-1.5.673-.777.842-1.01c.112-.156.211-.211.3-.169s.13.082.13.117q0,.26-.933,1.347-1.476,1.814-2.617,1.815a1.086,1.086,0,0,1-1.062-.648q-.519.544-1.01,1.01a3.4,3.4,0,0,1-2.254.854,1.94,1.94,0,0,1-1.166-.336,2.076,2.076,0,0,1-.907-1.943,5.659,5.659,0,0,1,1.036-3.109,7.525,7.525,0,0,1,1.4-1.632,3.759,3.759,0,0,1,2.409-1.114,1.885,1.885,0,0,1,.544.078.986.986,0,0,1,.777.984c0,.4-.1.6-.311.6-.087-.033-.13-.163-.13-.388,0-.311-.173-.466-.518-.466q-.907,0-2.332,1.658a6.963,6.963,0,0,0-1.71,3.342,3.514,3.514,0,0,0-.052.635,1.8,1.8,0,0,0,.233.8.885.885,0,0,0,.868.453,2.366,2.366,0,0,0,1.386-.569,6.1,6.1,0,0,0,1.347-1.451l-.078-.156a.739.739,0,0,1,.1-.674A.466.466,0,0,1,928.958,736.283Z" transform="translate(-913.103 -723.9)" fill="#707070"/><path d="M942.111,729.546q1.995-.182,2.423-.182t.427.129c0,.1-.2.211-.608.324a25.541,25.541,0,0,1-2.966.427q-.131.233-.311.545a4.039,4.039,0,0,0-.415.751,15.963,15.963,0,0,0-1.554,3.757,5.559,5.559,0,0,0-.026.6.865.865,0,0,0,.207.6q.363.414,1.036.051a10.927,10.927,0,0,0,1.878-1.451,13.933,13.933,0,0,0,1.956-2.125.191.191,0,0,1,.26-.052q.389.181-1.347,2.047a8.342,8.342,0,0,1-2.773,2.2,3.329,3.329,0,0,1-1.088.232,1.331,1.331,0,0,1-1.372-.984,1.6,1.6,0,0,1-.052-.44,7.61,7.61,0,0,1,.828-2.746,8.388,8.388,0,0,1-1.01,1.3q-.233.259-.363,0a.323.323,0,0,1-.026-.143.388.388,0,0,1,.1-.221q1.27-1.579,1.995-2.668,0-.026.57-1.089a2.654,2.654,0,0,1-.532.052.473.473,0,0,1-.4-.168.37.37,0,0,1-.026-.4q.181-.414,1.373-.466a.1.1,0,0,1,.1-.052l1.3-2.41c.069-.137.147-.28.233-.427s.151-.26.194-.337.091-.16.142-.246a.993.993,0,0,1,.13-.181l.1-.1c.069-.1.273-.155.609-.155a.751.751,0,0,1,.686.285.6.6,0,0,1,.078.35,1.064,1.064,0,0,1-.181.544,1.251,1.251,0,0,1-.389.427.75.75,0,0,0-.284.286l-1.244,2.176Z" transform="translate(-918.382 -721.566)" fill="#707070"/><path d="M953.191,736.283a3.756,3.756,0,0,0,.466-1.476,2.307,2.307,0,0,0-.117-.816.426.426,0,0,1,.1-.505.63.63,0,0,1,.557-.155q.518.131.518,1.166a5.18,5.18,0,0,1-1.218,2.72.644.644,0,0,0,.725.7q.7,0,2.124-1.5.674-.777.842-1.01c.112-.156.212-.211.3-.169s.13.082.13.117q0,.26-.933,1.347-1.476,1.814-2.616,1.815a1.087,1.087,0,0,1-1.062-.648q-.518.544-1.01,1.01a3.4,3.4,0,0,1-2.254.854,1.941,1.941,0,0,1-1.166-.336,2.077,2.077,0,0,1-.907-1.943,5.657,5.657,0,0,1,1.036-3.109,7.514,7.514,0,0,1,1.4-1.632,3.759,3.759,0,0,1,2.409-1.114,1.884,1.884,0,0,1,.544.078.986.986,0,0,1,.777.984c0,.4-.1.6-.311.6-.086-.033-.13-.163-.13-.388q0-.466-.518-.466-.907,0-2.331,1.658a6.96,6.96,0,0,0-1.71,3.342,3.558,3.558,0,0,0-.052.635,1.8,1.8,0,0,0,.233.8.887.887,0,0,0,.868.453,2.363,2.363,0,0,0,1.386-.569,6.07,6.07,0,0,0,1.347-1.451l-.078-.156a.742.742,0,0,1,.1-.674A.466.466,0,0,1,953.191,736.283Z" transform="translate(-922.389 -723.9)" fill="#707070"/><path d="M960.432,748.987a2.219,2.219,0,0,1-.518-.078q-1.321-.336-1.321-1.385a4.519,4.519,0,0,1,1.36-2.63,31,31,0,0,1,5.738-4.482,49.842,49.842,0,0,0,2.591-6.036q-1.452,1.762-2.073,2.435-2.331,2.591-3.756,2.59a1.968,1.968,0,0,1-.894-.245,2.332,2.332,0,0,1-.816-.7,1.593,1.593,0,0,1-.337-.971q0-1.373,1.917-3.083a14.17,14.17,0,0,1,2.383-1.762,8.283,8.283,0,0,1,1.969-.907,5.756,5.756,0,0,1,1.4-.181,2.025,2.025,0,0,1,1.192.363q.518.362.518.725c0,.139-.069.181-.207.129q-.286-.491-1.256-.491a4.9,4.9,0,0,0-2.2.634,10.887,10.887,0,0,0-2.215,1.5,8.837,8.837,0,0,0-1.671,1.969,3.672,3.672,0,0,0-.687,1.619q0,.907.518.907a4.481,4.481,0,0,0,2.228-1.192,27.283,27.283,0,0,0,4.275-4.223q.336-.492,1.4.026c.276.139.389.259.337.363q-.337.752-1.23,2.6t-1.334,2.785a13.254,13.254,0,0,0,2.034-1.567,24.828,24.828,0,0,0,2.526-2.526q.569-.674.57-.207,0,.648-3.109,3.42a17.416,17.416,0,0,1-2.539,2.02q-2.2,4.532-2.953,5.7Q962.324,748.987,960.432,748.987ZM965.2,741.4a43.139,43.139,0,0,0-4.456,3.692,3.819,3.819,0,0,0-1.347,2.552.578.578,0,0,0,.233.519.873.873,0,0,0,.492.156,1.46,1.46,0,0,0,.751-.389,7.564,7.564,0,0,0,.842-.764q.35-.376.609-.7t.583-.829c.216-.337.384-.6.505-.79s.289-.488.505-.894.363-.682.44-.828.224-.445.441-.894S965.147,741.5,965.2,741.4Z" transform="translate(-926.573 -723.884)" fill="#707070"/><path d="M983.365,738.267q-1.321,0-1.321-1.593t2.28-3.925a2.93,2.93,0,0,0,.259-.285l.181-.259c.242-.328.354-.535.337-.622l-.078-.233q-.1-.311-.855-.453a6.892,6.892,0,0,0-1.218-.143q-2.332,3.29-2.694,3.756c-.242.311-.406.441-.492.389a.217.217,0,0,1-.13-.182.633.633,0,0,1,.155-.311,21.156,21.156,0,0,0,2.409-3.652.782.782,0,0,1-.466-.22c-.1-.113-.112-.3-.026-.571a3.248,3.248,0,0,1,.79-1.074,4.387,4.387,0,0,1,1.153-.907q.492-.233.622-.284a.761.761,0,0,1,.285-.052q.311,0-.207.933l-1.01,1.606q1.166.078,1.995.078l.907-.026a1.367,1.367,0,0,1,.648.117c.138.078.172.212.1.4a4.85,4.85,0,0,1-.907,1.321,13.038,13.038,0,0,0-2.332,3.86,2.53,2.53,0,0,0-.181.855q0,.751.544.751a1.859,1.859,0,0,0,.686-.284,11.955,11.955,0,0,0,1.7-1.361,12.7,12.7,0,0,0,1.917-2.111.189.189,0,0,1,.246-.065c.095.043.142.086.142.13a.263.263,0,0,1-.052.142,10.106,10.106,0,0,1-1.4,1.787,12.654,12.654,0,0,1-1.969,1.761A3.221,3.221,0,0,1,983.365,738.267Z" transform="translate(-934.635 -722.387)" fill="#707070"/><path d="M994.2,739.4a1.966,1.966,0,0,1-.893-.245,2.339,2.339,0,0,1-.817-.7,1.6,1.6,0,0,1-.337-.971,2.173,2.173,0,0,1,.233-.985,6.8,6.8,0,0,1,1.671-2.112,15.009,15.009,0,0,1,2.4-1.748,8.276,8.276,0,0,1,1.968-.907,5.811,5.811,0,0,1,1.412-.181,1.982,1.982,0,0,1,1.179.35.954.954,0,0,1,.492.738.273.273,0,0,1-.026.156c-.018.017-.061.009-.13-.027a1.414,1.414,0,0,0-1.283-.491,4.905,4.905,0,0,0-2.2.634,11.476,11.476,0,0,0-2.319,1.593,10.149,10.149,0,0,0-1.593,1.93,3.553,3.553,0,0,0-.686,1.567q0,.959.543.959a3.318,3.318,0,0,0,1.658-.881,32.413,32.413,0,0,0,2.514-2.28,20.231,20.231,0,0,1,2.564-2.565,2.063,2.063,0,0,1,.752.182q.44.181.285.44a8.25,8.25,0,0,0-1.555,3.756,5.6,5.6,0,0,0-.026.6.866.866,0,0,0,.207.6q.388.414,1.063.051a11.01,11.01,0,0,0,1.878-1.451,12.9,12.9,0,0,0,1.929-2.124.175.175,0,0,1,.233-.065c.086.043.13.082.13.117q0,.389-1.231,1.7a15.254,15.254,0,0,1-1.878,1.775,3.877,3.877,0,0,1-2.254.906,1.3,1.3,0,0,1-1.321-.984,2.889,2.889,0,0,1-.078-.7,6.929,6.929,0,0,1,.492-2.461,9.86,9.86,0,0,0-.958,1.036,15.452,15.452,0,0,1-1.982,1.892A3.4,3.4,0,0,1,994.2,739.4Z" transform="translate(-939.431 -723.884)" fill="#707070"/><path d="M1009.44,742.76a.55.55,0,0,1-.13.168q-.064.051-.531.311a1.771,1.771,0,0,1-.841.26c-.25,0-.376-.062-.376-.182a.612.612,0,0,1,.052-.207q.466-.881,4.793-11.943a10.329,10.329,0,0,1-1.192.1.973.973,0,0,1-.608-.168.528.528,0,0,1-.22-.44q0-.272.583-.492a2.784,2.784,0,0,1,.893-.22.705.705,0,0,1,.519.207q.207.207.285.207h.078l.751-1.917q.466-1.3,1.424-3.381a30.633,30.633,0,0,1,1.737-3.33q1.736-2.615,3.471-2.616l.621.078.518.181a1.345,1.345,0,0,1,.752,1.2,3.881,3.881,0,0,1-.415,1.646,17.944,17.944,0,0,1-2.849,3.912,35.5,35.5,0,0,1-4.146,4.016q2.124-.181,2.734-.181t.634.155c0,.069-.164.151-.492.246s-1.657.316-3.989.66q-3.083,7.825-3.135,8.964a2.991,2.991,0,0,1-.117.816c-.06.164-.134.354-.219.57s-.151.38-.2.493-.09.236-.142.375a2.218,2.218,0,0,1-.13.3C1009.523,742.613,1009.484,742.682,1009.44,742.76Zm11.438-20.894a2.831,2.831,0,0,0,.44-1.425q0-.673-.492-.673-.985,0-2.8,2.539a33.967,33.967,0,0,0-1.891,2.979,32.983,32.983,0,0,0-2.124,4.534l-.207.414a22.884,22.884,0,0,0,3.86-3.834A33.074,33.074,0,0,0,1020.878,721.866Z" transform="translate(-945.336 -719.12)" fill="#707070"/><path d="M1026.592,729.977q.647,0,.777.414a.643.643,0,0,1-.064.453q-.117.22-.169.35c-.035.087-.061.155-.078.207-.086.172-.173.337-.259.492a15.979,15.979,0,0,0-1.554,3.756,5.7,5.7,0,0,0-.026.6.864.864,0,0,0,.207.6q.363.414,1.037.051a10.949,10.949,0,0,0,1.878-1.451,13.97,13.97,0,0,0,1.956-2.124.175.175,0,0,1,.233-.065c.086.042.13.086.13.13a.263.263,0,0,1-.052.142,10.141,10.141,0,0,1-1.4,1.787,8.344,8.344,0,0,1-2.772,2.2,3.341,3.341,0,0,1-1.089.233,1.332,1.332,0,0,1-1.373-.984,1.614,1.614,0,0,1-.052-.44,7.615,7.615,0,0,1,.829-2.746,8.424,8.424,0,0,1-1.01,1.3q-.233.259-.363,0a.322.322,0,0,1-.026-.142.386.386,0,0,1,.1-.221q1.269-1.579,1.995-2.668a.419.419,0,0,1,.052-.337q.517-1.451.907-1.529Zm2.047-3.446-.207.828a1.7,1.7,0,0,1-.337.752c-.224.346-.4.518-.518.518q-1.114,0-1.113-.545a5.488,5.488,0,0,1,1.113-.957l.441-.337c.276-.242.45-.363.518-.363A.092.092,0,0,1,1028.639,726.532Z" transform="translate(-951.388 -721.92)" fill="#707070"/><path d="M1039.743,731.594q1.4,0,1.4,1.346a1.662,1.662,0,0,1-.388,1.141,5.253,5.253,0,0,1-2.1,1.671,7.07,7.07,0,0,1-2.461.79c-.242.019-.372-.052-.389-.207-.017-.069,0-.112.065-.129a.589.589,0,0,1,.143-.027,4.1,4.1,0,0,0,1.529-.569,8.37,8.37,0,0,0,2.539-1.917,1.541,1.541,0,0,0,.336-.894.372.372,0,0,0-.414-.427,2.2,2.2,0,0,0-.907.285,8.93,8.93,0,0,0-2.565,1.982,7.172,7.172,0,0,0-1.762,2.759,2.726,2.726,0,0,0-.13.815,1.113,1.113,0,0,0,.337.765,1.352,1.352,0,0,0,1.036.363,4.806,4.806,0,0,0,1.787-.414,9.509,9.509,0,0,0,4.508-3.6c.1-.139.2-.165.285-.078.069.035.1.078.1.13a.319.319,0,0,1-.078.181,9.26,9.26,0,0,1-1.969,2.306,7.012,7.012,0,0,1-4.482,1.968,2.923,2.923,0,0,1-2.616-1.113,1.913,1.913,0,0,1-.286-1.063,4.144,4.144,0,0,1,.337-1.477,8.143,8.143,0,0,1,2.772-3.031A6.491,6.491,0,0,1,1039.743,731.594Z" transform="translate(-955.186 -723.9)" fill="#707070"/></g></g></svg>